PathFileType	4	(X/Y/Z)	C:\Users\ebm\Documents\Erivelton\Erivelton\propulsion1.trc
DataRate	CameraRate	NumFrames	NumMarkers	Units	OrigDataRate	OrigDataStartFrame	OrigNumFrames
150.00	150.00	      21	28	mm	150.00	148	      1182
Frame#	Time	IJ			PX			C7			T8			RAC			RAS			RPS			RAI			RPI			RLE			RME			RRS			RUS			R3M			R5M			LAC			LAS			LPS			LAI			LPI			LLE			LME			LRS			LUS			L3M			L5M			RW			LW			V_mid_elbow_r			V_mid_elbow_l			V_mid_wrist_r			V_mid_wrist_l			V_mid_trunk_low			V_mid_trunk_upp			
		X1	Y1	Z1	X2	Y2	Z2	X3	Y3	Z3	X4	Y4	Z4	X5	Y5	Z5	X6	Y6	Z6	X7	Y7	Z7	X8	Y8	Z8	X9	Y9	Z9	X10	Y10	Z10	X11	Y11	Z11	X12	Y12	Z12	X13	Y13	Z13	X14	Y14	Z14	X15	Y15	Z15	X16	Y16	Z16	X17	Y17	Z17	X18	Y18	Z18	X19	Y19	Z19	X20	Y20	Z20	X21	Y21	Z21	X22	Y22	Z22	X23	Y23	Z23	X24	Y24	Z24	X25	Y25	Z25	X26	Y26	Z26	X27	Y27	Z27	X28	Y28	Z28	

148	0.980							-1727.02197	1119.82959	54.99456				-1668.52783	1044.32605	244.21692				-1711.92883	898.42590	335.89761	-1705.04517	800.68292	337.53806	-1732.32690	829.27014	366.35165							-1575.23401	578.99579	329.31805	-1606.65088	568.10486	376.53098				-1577.88501	494.65677	385.16614																																								
149	0.987							-1721.15198	1119.67224	54.83035				-1662.15979	1043.63635	244.00264				-1703.11011	896.78522	335.11304	-1694.80420	798.97150	336.37930	-1720.98474	827.54913	365.15408							-1563.34363	576.04852	329.43402	-1594.94470	565.77222	376.20032				-1567.18848	491.10162	385.56436																																								
150	0.993							-1715.33142	1119.51245	54.64372				-1655.69885	1042.89270	243.78452				-1694.27295	895.08319	334.68951	-1684.34485	797.27698	334.89261	-1711.11316	825.12225	364.85007							-1551.47998	573.01453	329.63669	-1583.36450	562.76685	376.33167				-1556.36243	487.57779	386.73236																																								
151	1.000							-1709.51257	1119.37817	54.45878				-1649.21814	1042.11328	243.52831				-1685.47412	893.01581	334.58188	-1674.03125	795.77924	333.64795	-1699.94836	823.30273	363.67905							-1539.69788	569.93671	329.84821	-1571.87769	559.85919	376.78119				-1545.68982	484.36429	385.86526																																								
152	1.007							-1703.69165	1119.29468	54.26376				-1642.84290	1041.47168	243.25729				-1676.41931	891.37189	333.47302	-1663.51099	794.28046	332.17780	-1689.71631	821.22717	361.91632	-1729.91150	746.25421	394.14310				-1527.83594	566.51062	329.70178	-1560.42041	556.66431	376.41724				-1534.58691	481.64423	386.98157																																								
153	1.013							-1697.87781	1119.27112	54.05789				-1636.46667	1040.88245	242.97075	-1634.30334	865.27838	298.57031	-1667.48169	889.58325	332.56796	-1652.99756	792.86273	330.72720	-1680.02832	818.86664	361.38809	-1718.30823	743.47443	393.25745				-1516.04517	563.14825	329.85751	-1548.77637	553.96460	376.41772				-1524.21619	478.08374	386.37558																																								
154	1.020							-1692.08582	1119.25964	53.80690				-1630.19556	1040.38916	242.69225	-1625.23291	864.45129	297.24936	-1658.39148	888.16931	332.17511	-1642.39844	791.60016	328.88568	-1669.43213	816.50665	361.17468	-1706.52490	741.03864	391.37125				-1504.25769	559.63275	329.86542	-1537.10901	551.04163	376.03793				-1513.23633	475.17648	387.47241																																								
155	1.027							-1686.33740	1119.28381	53.53192				-1623.91211	1039.91602	242.39685	-1616.15369	863.80444	295.77826	-1649.21631	886.72894	330.91721	-1631.70642	790.43689	327.29858	-1659.08008	814.69543	359.21024	-1694.72217	738.11865	390.50974				-1492.46387	556.06415	330.00446	-1525.77478	547.68378	375.77066				-1502.74377	471.30634	387.53217																																								
156	1.033							-1680.64880	1119.35608	53.24551				-1617.59326	1039.42200	242.01698	-1607.10779	863.32129	294.15158	-1640.04004	885.10175	330.07523	-1620.96472	789.32385	325.46115	-1648.34863	812.96198	357.69797	-1682.72400	735.59192	389.50897				-1480.66040	552.29437	330.01941	-1514.43835	544.22644	376.61520				-1492.42908	467.54657	387.56659																																								
157	1.040							-1674.93689	1119.43872	52.97718				-1611.37207	1039.06812	241.67575	-1597.91663	862.79791	292.69507	-1630.82251	883.78180	329.02625	-1610.05676	788.40875	323.26471	-1637.97766	811.07294	356.27338	-1670.62524	733.63434	387.72021				-1469.01257	548.65906	330.07739	-1502.95410	541.28925	376.03796				-1481.91699	464.24808	388.02249																																								
158	1.047							-1669.28247	1119.54700	52.64990				-1605.17542	1038.74170	241.22496	-1588.68481	862.37195	290.89502	-1621.43384	882.64716	327.78558	-1599.14709	787.65137	321.32047	-1625.64221	809.95642	355.32220	-1658.48303	731.36566	385.45093				-1457.41394	544.95233	330.04575	-1491.46045	538.44421	376.02518				-1471.62109	460.81616	388.07263																																								
159	1.053							-1663.71692	1119.69165	52.37990				-1598.91431	1038.38806	240.82262	-1579.44238	862.07739	289.07910	-1612.17261	881.61200	326.45724	-1588.20886	786.99738	319.25439	-1615.09692	808.31030	353.73672	-1646.23206	728.86310	383.66174				-1445.77905	541.05902	329.95743	-1479.97632	535.67572	375.83017				-1461.26025	457.57318	388.15363																												-1455.70105	486.08295	-299.66913										
160	1.060							-1658.15930	1119.87268	52.06833				-1592.69263	1038.13977	240.41287	-1570.19678	861.82849	287.34775	-1602.84119	880.44122	325.48849	-1577.21228	786.45959	316.98260	-1603.30811	807.23529	351.57513	-1633.91028	726.71051	381.46548				-1434.31348	537.04437	329.74686	-1468.78113	532.36963	374.95270				-1450.92371	454.21286	389.36182																												-1445.02454	482.13965	-299.57947										
161	1.067							-1652.60962	1120.10205	51.80202				-1586.46851	1037.90698	240.11351	-1560.85339	861.73376	285.43817	-1593.52551	879.31177	323.74213	-1566.12085	785.96460	314.65430	-1593.20398	805.78137	349.63800	-1621.45117	724.92041	379.57422				-1423.01062	533.18683	329.33566	-1457.73901	529.28003	374.76227				-1440.80359	450.90741	389.42401																												-1434.49207	478.27487	-299.50494										
162	1.073							-1647.08850	1120.37854	51.58796				-1580.10950	1037.62366	239.80450	-1551.46912	861.62006	283.52994	-1584.10376	878.15521	322.46835	-1555.02063	785.55017	312.15472	-1583.11829	804.44098	347.42563	-1609.03601	723.10663	377.27563				-1411.96387	529.16187	328.61475	-1446.70776	526.20367	374.87595				-1430.34216	447.56250	389.12741																												-1423.96582	474.39505	-299.61423										
163	1.080							-1641.54980	1120.65601	51.42675				-1573.63123	1037.32495	239.49660	-1542.09851	861.60223	281.74475	-1574.78894	877.38763	321.12018	-1543.77710	784.88715	309.53079	-1574.37537	802.78168	346.11935	-1596.66052	721.43231	374.63156				-1401.08374	525.24921	327.99374	-1435.93201	522.97534	373.77847				-1420.11829	444.72110	389.53363																												-1413.56165	470.53583	-299.72281										
164	1.087							-1635.96997	1120.96875	51.27360				-1567.11108	1037.03577	239.21983	-1532.63513	861.54456	279.84381	-1565.32019	876.46216	319.42712	-1532.79407	784.61761	307.04260	-1563.38538	801.73792	344.13211	-1584.39612	719.73688	371.89383				-1390.43176	521.36847	327.34894	-1425.37769	519.56689	372.91132				-1410.29797	441.22217	390.04596																												-1403.23254	466.70618	-299.71185				-1447.02576	466.67950	-310.46094				
165	1.093							-1630.43530	1121.33972	51.17425				-1560.48914	1036.83594	238.83247	-1523.13184	861.63245	277.78903	-1555.99011	875.69745	317.60138	-1521.86011	784.40472	304.40024	-1552.64587	800.65808	341.74429	-1572.18091	718.12732	368.58224				-1379.92383	517.42090	326.49469	-1415.04675	516.31067	372.21335				-1400.48889	438.32816	390.62415																									-1459.78333	525.90710	-300.42520	-1393.11243	463.01599	-299.81381				-1436.85608	463.74017	-310.53653				
166	1.100							-1624.82446	1121.74890	51.09003				-1553.71191	1036.45703	238.52281	-1513.62073	861.67389	275.81650	-1546.63574	874.88678	315.98117	-1510.93787	784.26648	301.64526	-1541.82275	799.66052	339.34531	-1560.09827	716.70764	365.31274				-1369.65662	513.57880	325.71313	-1405.05396	513.20380	371.58185				-1390.96289	434.97543	390.46335																									-1448.63391	523.34521	-300.53104	-1383.12952	459.52209	-299.82928				-1426.90283	460.75046	-310.60742				
167	1.107							-1619.20276	1122.10669	50.97451				-1546.90271	1036.32043	238.13368	-1504.19104	861.85040	273.89334	-1537.20227	873.82861	314.24591	-1500.09631	784.19006	298.93515	-1531.24731	798.74762	336.46899	-1548.09351	715.39154	362.11676				-1359.48499	509.76431	324.77829	-1395.05774	510.56924	370.49301				-1381.84680	432.44772	390.42960				-1569.81506	876.57495	-239.73154																			-1437.74500	520.74359	-300.44452	-1373.26025	455.92581	-300.00119				-1417.03613	457.90482	-310.61749				
168	1.113							-1613.50378	1122.45361	50.75566				-1540.03479	1036.28320	237.77687	-1494.70947	862.11139	271.80984	-1527.93677	873.20331	312.44977	-1489.31677	784.17236	296.01190	-1520.52795	797.90833	333.61755	-1536.14319	714.28149	358.90424				-1349.93530	506.21118	324.43887	-1385.48511	507.75223	369.68484				-1373.36328	429.62909	390.23361				-1560.69019	875.59082	-238.74049																			-1426.96472	518.10492	-300.27289	-1363.62280	452.36554	-300.14047				-1407.45374	455.07721	-310.71033				
